<svg width="172" height="44" viewBox="0 0 172 44" fill="none" xmlns="http://www.w3.org/2000/svg">
<path fill-rule="evenodd" clip-rule="evenodd" d="M30.1231 12.1128L33.1656 13.8693V17.429L8.08275 31.9105L5 30.1307V26.6176L30.1231 12.1128ZM25.3719 9.36961L19.0828 5.73861L5 13.8693V21.1313L25.3719 9.36961ZM12.834 34.6537L33.1656 22.9152V30.1307L19.0828 38.2614L12.834 34.6537Z" fill="#072047"/>
<path d="M48.271 30.5L43.279 14.1624H46.4557L50.5401 27.5955L54.6926 14.1624H57.8693L52.8773 30.5H48.271ZM59.3622 16.545V13.8221H62.4482V16.545H59.3622ZM59.3622 30.5V18.2468H62.4482V30.5H59.3622ZM64.0342 35.9459V33.0641H64.5788C65.2822 33.0641 65.7625 32.9053 66.0197 32.5876C66.2844 32.2699 66.4168 31.8161 66.4168 31.2261V18.2468H69.5028V32.7237C69.5028 33.6994 69.1964 34.4785 68.5838 35.0609C67.9787 35.6509 67.158 35.9459 66.1218 35.9459H64.0342ZM66.4168 16.545V13.8221H69.5028V16.545H66.4168ZM76.0782 30.8404C75.2008 30.8404 74.4558 30.674 73.8432 30.3412C73.2381 30.0008 72.7767 29.5508 72.459 28.991C72.1489 28.4238 71.9938 27.7998 71.9938 27.119C71.9938 26.5518 72.0808 26.0336 72.2548 25.5647C72.4287 25.0957 72.7086 24.6835 73.0943 24.328C73.4877 23.965 74.0133 23.6624 74.6714 23.4204C75.1252 23.254 75.666 23.1065 76.2938 22.9779C76.9216 22.8493 77.6326 22.7283 78.4268 22.6148C79.2209 22.4938 80.0945 22.3615 81.0476 22.2178L79.9357 22.8304C79.9357 22.1043 79.7617 21.5711 79.4138 21.2307C79.0659 20.8903 78.4835 20.7201 77.6666 20.7201C77.2128 20.7201 76.74 20.8298 76.2484 21.0492C75.7568 21.2685 75.4126 21.658 75.216 22.2178L72.425 21.3328C72.7351 20.3193 73.3175 19.4948 74.1722 18.8595C75.0269 18.2241 76.1917 17.9065 77.6666 17.9065C78.7482 17.9065 79.7088 18.0729 80.5484 18.4057C81.3879 18.7385 82.0233 19.3133 82.4544 20.1302C82.6965 20.584 82.8402 21.0378 82.8856 21.4916C82.9309 21.9455 82.9536 22.4522 82.9536 23.0119V30.5H80.2534V27.9813L80.6391 28.5032C80.0416 29.3276 79.3949 29.9252 78.699 30.2958C78.0108 30.6588 77.1371 30.8404 76.0782 30.8404ZM76.7363 28.4124C77.3035 28.4124 77.7801 28.3141 78.1658 28.1174C78.5591 27.9132 78.8692 27.6825 79.0961 27.4254C79.3306 27.1682 79.4895 26.9526 79.5727 26.7787C79.7315 26.4459 79.8223 26.0601 79.8449 25.6214C79.8752 25.1752 79.8903 24.8045 79.8903 24.5096L80.798 24.7365C79.8828 24.8877 79.1415 25.0163 78.5742 25.1222C78.007 25.2205 77.5494 25.3113 77.2014 25.3945C76.8535 25.4777 76.5472 25.5685 76.2824 25.6668C75.9799 25.7878 75.7341 25.9202 75.545 26.0639C75.3635 26.2 75.2273 26.3513 75.1365 26.5177C75.0533 26.6841 75.0117 26.8694 75.0117 27.0736C75.0117 27.3535 75.0798 27.5955 75.216 27.7998C75.3597 27.9964 75.5601 28.1477 75.8173 28.2536C76.0744 28.3595 76.3808 28.4124 76.7363 28.4124ZM86.7824 35.9459L89.1423 29.4562L89.1876 31.3623L83.8552 18.2468H87.0547L90.6399 27.5275H89.9138L93.4763 18.2468H96.5622L89.6415 35.9459H86.7824ZM108.872 30.8404C107.662 30.8404 106.569 30.6286 105.593 30.205C104.625 29.7739 103.827 29.1612 103.2 28.367C102.579 27.5653 102.186 26.6123 102.02 25.508L105.242 25.0314C105.469 25.9693 105.938 26.6917 106.649 27.1984C107.36 27.7052 108.169 27.9586 109.077 27.9586C109.583 27.9586 110.075 27.8792 110.551 27.7203C111.028 27.5615 111.418 27.327 111.72 27.0169C112.03 26.7068 112.185 26.3248 112.185 25.871C112.185 25.7046 112.159 25.5458 112.106 25.3945C112.06 25.2357 111.981 25.0882 111.868 24.952C111.754 24.8159 111.591 24.6873 111.38 24.5663C111.175 24.4453 110.915 24.3356 110.597 24.2373L106.354 22.9893C106.036 22.8985 105.665 22.7699 105.242 22.6035C104.826 22.4371 104.421 22.1988 104.028 21.8887C103.634 21.5786 103.305 21.1702 103.041 20.6634C102.784 20.1491 102.655 19.5024 102.655 18.7233C102.655 17.6266 102.931 16.7152 103.483 15.9891C104.035 15.2629 104.773 14.7221 105.696 14.3666C106.618 14.0111 107.639 13.8372 108.759 13.8447C109.886 13.8599 110.892 14.0527 111.777 14.4234C112.662 14.794 113.403 15.3348 114.001 16.0458C114.598 16.7492 115.029 17.6115 115.294 18.6326L111.958 19.1998C111.837 18.6704 111.614 18.2241 111.289 17.8611C110.964 17.498 110.574 17.2219 110.12 17.0328C109.674 16.8438 109.205 16.7416 108.713 16.7265C108.229 16.7114 107.772 16.7795 107.341 16.9307C106.917 17.0744 106.569 17.2862 106.297 17.5661C106.032 17.8459 105.9 18.1787 105.9 18.5645C105.9 18.92 106.009 19.2112 106.229 19.4381C106.448 19.6574 106.724 19.8352 107.057 19.9713C107.39 20.1075 107.73 20.2209 108.078 20.3117L110.915 21.0832C111.338 21.1967 111.807 21.3479 112.321 21.537C112.836 21.7186 113.327 21.9757 113.796 22.3085C114.273 22.6338 114.662 23.0649 114.965 23.6019C115.275 24.1389 115.43 24.8197 115.43 25.6441C115.43 26.5215 115.245 27.2892 114.874 27.9473C114.511 28.5977 114.019 29.1385 113.399 29.5697C112.779 29.9932 112.076 30.3109 111.289 30.5227C110.51 30.7345 109.704 30.8404 108.872 30.8404ZM118.151 16.545V13.8221H121.237V16.545H118.151ZM118.151 30.5V18.2468H121.237V30.5H118.151ZM132.988 30.5V24.7138C132.988 24.4339 132.973 24.0784 132.943 23.6473C132.913 23.2086 132.818 22.7699 132.659 22.3312C132.5 21.8925 132.24 21.5257 131.876 21.2307C131.521 20.9357 131.014 20.7882 130.356 20.7882C130.091 20.7882 129.808 20.8298 129.505 20.913C129.203 20.9962 128.919 21.1588 128.654 21.4009C128.39 21.6354 128.17 21.9833 127.996 22.4447C127.83 22.9061 127.747 23.5187 127.747 24.2826L125.977 23.4431C125.977 22.4749 126.173 21.5673 126.567 20.7201C126.96 19.873 127.55 19.1885 128.337 18.6666C129.131 18.1447 130.129 17.8838 131.332 17.8838C132.292 17.8838 133.075 18.0464 133.68 18.3716C134.286 18.6969 134.754 19.1091 135.087 19.6083C135.428 20.1075 135.67 20.6294 135.813 21.174C135.957 21.711 136.044 22.2026 136.074 22.6489C136.105 23.0951 136.12 23.4204 136.12 23.6246V30.5H132.988ZM124.615 30.5V18.2468H127.361V22.3085H127.747V30.5H124.615ZM144.305 36.2862C143.609 36.2862 142.948 36.1728 142.32 35.9459C141.692 35.7265 141.129 35.4164 140.629 35.0155C140.138 34.6222 139.737 34.1608 139.427 33.6314L142.286 32.2472C142.482 32.6103 142.762 32.8863 143.125 33.0754C143.496 33.2645 143.897 33.3591 144.328 33.3591C144.789 33.3591 145.224 33.2797 145.633 33.1208C146.041 32.9695 146.366 32.7389 146.608 32.4287C146.858 32.1262 146.975 31.748 146.96 31.2942V27.7317H147.346V18.2468H150.046V31.3396C150.046 31.6421 150.031 31.9258 150.001 32.1905C149.978 32.4628 149.933 32.7313 149.865 32.996C149.668 33.7448 149.301 34.3613 148.764 34.8453C148.235 35.3294 147.584 35.6887 146.813 35.9232C146.041 36.1652 145.205 36.2862 144.305 36.2862ZM144.033 30.8404C142.906 30.8404 141.919 30.5567 141.072 29.9895C140.225 29.4222 139.563 28.6507 139.086 27.675C138.617 26.6992 138.383 25.5987 138.383 24.3734C138.383 23.1254 138.621 22.0173 139.098 21.0492C139.582 20.0734 140.259 19.3057 141.129 18.746C141.998 18.1863 143.02 17.9065 144.192 17.9065C145.357 17.9065 146.336 18.1901 147.13 18.7574C147.925 19.3246 148.526 20.0961 148.934 21.0719C149.343 22.0476 149.547 23.1481 149.547 24.3734C149.547 25.5987 149.339 26.6992 148.923 27.675C148.515 28.6507 147.902 29.4222 147.085 29.9895C146.268 30.5567 145.251 30.8404 144.033 30.8404ZM144.532 28.0947C145.221 28.0947 145.769 27.9397 146.177 27.6296C146.593 27.3195 146.892 26.8846 147.074 26.3248C147.255 25.7651 147.346 25.1147 147.346 24.3734C147.346 23.6322 147.255 22.9817 147.074 22.422C146.892 21.8623 146.601 21.4274 146.2 21.1172C145.807 20.8071 145.289 20.6521 144.646 20.6521C143.957 20.6521 143.39 20.8223 142.944 21.1626C142.505 21.4954 142.18 21.9455 141.968 22.5127C141.756 23.0725 141.65 23.6927 141.65 24.3734C141.65 25.0617 141.753 25.6895 141.957 26.2568C142.161 26.8165 142.475 27.2627 142.898 27.5955C143.322 27.9283 143.867 28.0947 144.532 28.0947ZM161.574 30.5V24.7138C161.574 24.4339 161.559 24.0784 161.528 23.6473C161.498 23.2086 161.404 22.7699 161.245 22.3312C161.086 21.8925 160.825 21.5257 160.462 21.2307C160.106 20.9357 159.6 20.7882 158.942 20.7882C158.677 20.7882 158.393 20.8298 158.091 20.913C157.788 20.9962 157.505 21.1588 157.24 21.4009C156.975 21.6354 156.756 21.9833 156.582 22.4447C156.415 22.9061 156.332 23.5187 156.332 24.2826L154.562 23.4431C154.562 22.4749 154.759 21.5673 155.152 20.7201C155.546 19.873 156.135 19.1885 156.922 18.6666C157.716 18.1447 158.715 17.8838 159.917 17.8838C160.878 17.8838 161.661 18.0464 162.266 18.3716C162.871 18.6969 163.34 19.1091 163.673 19.6083C164.013 20.1075 164.255 20.6294 164.399 21.174C164.543 21.711 164.63 22.2026 164.66 22.6489C164.69 23.0951 164.705 23.4204 164.705 23.6246V30.5H161.574ZM153.201 30.5V14.1624H155.946V22.5581H156.332V30.5H153.201Z" fill="#072047"/>
</svg>
