<svg width="143" height="61" viewBox="0 0 143 61" fill="none" xmlns="http://www.w3.org/2000/svg">
<path fill-rule="evenodd" clip-rule="evenodd" d="M48.9995 15.3425C48.4625 10.6439 44.4725 6.99438 39.6302 6.99438C34.4216 6.99438 30.1993 11.2167 30.1993 16.4252C30.1993 16.9176 30.237 17.4012 30.3098 17.8733C28.9262 16.958 27.2676 16.4251 25.4845 16.4251C20.648 16.4251 16.7273 20.3459 16.7273 25.1823C16.7273 26.8887 17.2153 28.4811 18.0594 29.8275H12.8273C10.1251 29.8275 7.93457 32.018 7.93457 34.7202C7.93457 37.4223 10.1251 39.6129 12.8273 39.6129H38.4833C37.5359 37.4112 37.0112 34.9849 37.0112 32.4359C37.0112 24.5708 42.0076 17.8727 48.9995 15.3425Z" fill="#072047"/>
<path d="M54.1567 42.7483C51.8538 42.7483 49.8655 42.2472 48.1916 41.2451C46.5285 40.2429 45.2438 38.8409 44.3375 37.0391C43.442 35.2373 42.9942 33.1424 42.9942 30.7542C42.9942 28.366 43.442 26.2711 44.3375 24.4693C45.2438 22.6675 46.5285 21.2655 48.1916 20.2634C49.8655 19.2612 51.8538 18.7601 54.1567 18.7601C56.8008 18.7601 59.0183 19.4158 60.8095 20.7271C62.6112 22.0385 63.8799 23.8136 64.6156 26.0525L60.2337 27.2679C59.8073 25.8713 59.0876 24.7891 58.0748 24.0215C57.062 23.2432 55.7559 22.8541 54.1567 22.8541C52.6961 22.8541 51.4754 23.1793 50.4945 23.8296C49.5243 24.48 48.794 25.3968 48.3036 26.5803C47.8132 27.7637 47.568 29.155 47.568 30.7542C47.568 32.3534 47.8132 33.7447 48.3036 34.9282C48.794 36.1116 49.5243 37.0285 50.4945 37.6788C51.4754 38.3292 52.6961 38.6543 54.1567 38.6543C55.7559 38.6543 57.062 38.2652 58.0748 37.4869C59.0876 36.7086 59.8073 35.6265 60.2337 34.2405L64.6156 35.4559C63.8799 37.6948 62.6112 39.4699 60.8095 40.7813C59.0183 42.0926 56.8008 42.7483 54.1567 42.7483ZM68.4567 42.2686V18.7601H72.8066V42.2686H68.4567ZM85.3731 42.7483C83.6353 42.7483 82.1107 42.3592 80.7994 41.5809C79.488 40.8026 78.4645 39.7311 77.7289 38.3665C77.0039 36.9911 76.6414 35.4133 76.6414 33.6328C76.6414 31.831 77.0146 30.2478 77.7609 28.8831C78.5072 27.5078 79.536 26.4363 80.8474 25.6687C82.1587 24.9011 83.6673 24.5173 85.3731 24.5173C87.111 24.5173 88.6355 24.9064 89.9469 25.6847C91.2689 26.463 92.2977 27.5398 93.0334 28.9151C93.769 30.2798 94.1368 31.8523 94.1368 33.6328C94.1368 35.4239 93.7637 37.0071 93.0174 38.3825C92.2818 39.7471 91.2529 40.8186 89.9309 41.5969C88.6196 42.3645 87.1003 42.7483 85.3731 42.7483ZM85.3731 38.6863C86.7698 38.6863 87.8093 38.2172 88.4916 37.279C89.1846 36.3301 89.5311 35.1147 89.5311 33.6328C89.5311 32.0975 89.1793 30.8715 88.4756 29.9546C87.7826 29.0377 86.7485 28.5793 85.3731 28.5793C84.4243 28.5793 83.646 28.7925 83.0383 29.219C82.4306 29.6454 81.9775 30.2371 81.679 30.9941C81.3911 31.751 81.2472 32.6306 81.2472 33.6328C81.2472 35.1787 81.5937 36.4101 82.2867 37.327C82.9903 38.2332 84.0191 38.6863 85.3731 38.6863ZM104.082 42.7803C102.728 42.7803 101.625 42.5511 100.772 42.0926C99.9192 41.6342 99.2528 41.0532 98.7731 40.3495C98.304 39.6458 97.9681 38.9155 97.7656 38.1586C97.563 37.3909 97.4404 36.6926 97.3977 36.0636C97.3551 35.4346 97.3338 34.9761 97.3338 34.6883V24.997H101.748V33.153C101.748 33.5475 101.769 34.0539 101.812 34.6723C101.854 35.28 101.987 35.893 102.211 36.5114C102.435 37.1297 102.798 37.6468 103.299 38.0626C103.811 38.4784 104.53 38.6863 105.458 38.6863C105.831 38.6863 106.231 38.6277 106.657 38.5104C107.084 38.3931 107.483 38.1692 107.857 37.8387C108.23 37.4976 108.534 37.0018 108.768 36.3515C109.013 35.6904 109.136 34.8269 109.136 33.7607L111.631 34.9441C111.631 36.3088 111.354 37.5882 110.799 38.7823C110.245 39.9763 109.408 40.9412 108.288 41.6768C107.18 42.4125 105.778 42.7803 104.082 42.7803ZM109.68 42.2686V36.5434H109.136V24.997H113.518V42.2686H109.68ZM124.992 42.7483C123.403 42.7483 122.012 42.3485 120.818 41.5489C119.624 40.7493 118.691 39.6618 118.019 38.2865C117.358 36.9112 117.028 35.3599 117.028 33.6328C117.028 31.8737 117.364 30.3118 118.035 28.9471C118.718 27.5718 119.672 26.4896 120.898 25.7007C122.124 24.9117 123.563 24.5173 125.216 24.5173C126.858 24.5173 128.238 24.9171 129.358 25.7167C130.477 26.5163 131.325 27.6038 131.901 28.9791C132.476 30.3544 132.764 31.9056 132.764 33.6328C132.764 35.3599 132.471 36.9112 131.885 38.2865C131.309 39.6618 130.445 40.7493 129.294 41.5489C128.142 42.3485 126.708 42.7483 124.992 42.7483ZM125.696 38.8782C126.666 38.8782 127.439 38.6597 128.014 38.2225C128.601 37.7854 129.022 37.1724 129.278 36.3834C129.534 35.5945 129.662 34.6776 129.662 33.6328C129.662 32.588 129.534 31.6711 129.278 30.8821C129.022 30.0932 128.612 29.4802 128.046 29.043C127.492 28.6059 126.762 28.3874 125.856 28.3874C124.885 28.3874 124.086 28.6272 123.457 29.107C122.838 29.5761 122.38 30.2105 122.081 31.0101C121.783 31.799 121.634 32.6733 121.634 33.6328C121.634 34.603 121.778 35.4879 122.065 36.2875C122.353 37.0764 122.796 37.7055 123.393 38.1746C123.99 38.6437 124.757 38.8782 125.696 38.8782ZM129.662 42.2686V30.4344H129.118V19.2399H133.5V42.2686H129.662Z" fill="#072047"/>
</svg>
