<svg width="197" height="61" viewBox="0 0 197 61" fill="none" xmlns="http://www.w3.org/2000/svg">
<path fill-rule="evenodd" clip-rule="evenodd" d="M42.8848 16.1929L47.2157 18.6933V23.7613L11.5071 44.3776L7.11816 41.8437V36.8427L42.8848 16.1929ZM36.1207 12.2876L27.1669 7.11816L7.11816 18.6933V29.0322L36.1207 12.2876ZM18.2712 48.2829L47.2157 31.5718V41.8437L27.1669 53.4188L18.2712 48.2829Z" fill="#072047"/>
<path d="M63.7134 42.2686V19.0098H73.0169C74.6752 19.0098 76.0158 19.3436 77.0388 20.0112C78.0617 20.668 78.8101 21.4972 79.2839 22.4986C79.7577 23.5 79.9946 24.5122 79.9946 25.5351C79.9946 26.8381 79.6985 27.9202 79.1062 28.7817C78.5248 29.6431 77.7225 30.2192 76.6996 30.5099V29.7023C78.1533 30.0038 79.2408 30.6768 79.9623 31.7213C80.6945 32.7658 81.0606 33.9342 81.0606 35.2263C81.0606 36.6154 80.8022 37.8375 80.2853 38.8928C79.7792 39.9481 79.0039 40.7772 77.9594 41.3802C76.9149 41.9724 75.6013 42.2686 74.0184 42.2686H63.7134ZM68.1714 38.1337H73.5661C74.1583 38.1337 74.686 38.0098 75.149 37.7622C75.612 37.5037 75.9727 37.1484 76.2312 36.6961C76.5004 36.2331 76.635 35.6893 76.635 35.0648C76.635 34.5156 76.5219 34.0257 76.2958 33.595C76.0697 33.1642 75.7251 32.8251 75.2621 32.5774C74.8098 32.319 74.2445 32.1897 73.5661 32.1897H68.1714V38.1337ZM68.1714 28.0871H72.9523C73.4477 28.0871 73.8891 28.001 74.2768 27.8287C74.6644 27.6564 74.9713 27.3926 75.1975 27.0373C75.4236 26.6712 75.5366 26.2028 75.5366 25.632C75.5366 24.9214 75.3159 24.3237 74.8744 23.8392C74.4329 23.3546 73.7922 23.1123 72.9523 23.1123H68.1714V28.0871ZM92.3902 42.7531C90.6027 42.7531 89.0252 42.3709 87.6577 41.6063C86.3009 40.831 85.2349 39.7704 84.4596 38.4244C83.6951 37.0676 83.3128 35.517 83.3128 33.7726C83.3128 31.8667 83.6897 30.2084 84.4434 28.7978C85.1972 27.3872 86.2363 26.2943 87.5608 25.519C88.8852 24.7329 90.4089 24.3399 92.1318 24.3399C93.9623 24.3399 95.5183 24.7706 96.7997 25.632C98.0811 26.4935 99.0286 27.7049 99.6424 29.2662C100.256 30.8276 100.472 32.6635 100.288 34.7741H95.9436V33.1589C95.9436 31.3821 95.6583 30.1061 95.0876 29.3308C94.5276 28.5448 93.607 28.1518 92.3256 28.1518C90.8288 28.1518 89.7251 28.6094 89.0144 29.5247C88.3145 30.4292 87.9646 31.7698 87.9646 33.5465C87.9646 35.1725 88.3145 36.4323 89.0144 37.3261C89.7251 38.209 90.7642 38.6505 92.1318 38.6505C92.9932 38.6505 93.7308 38.4621 94.3446 38.0852C94.9583 37.7083 95.4268 37.1645 95.7498 36.4539L100.143 37.7137C99.4863 39.3074 98.4472 40.5457 97.0258 41.4287C95.6152 42.3116 94.07 42.7531 92.3902 42.7531ZM86.6078 34.7741V31.5114H98.1726V34.7741H86.6078ZM112.044 42.7531C110.256 42.7531 108.679 42.3709 107.311 41.6063C105.955 40.831 104.889 39.7704 104.113 38.4244C103.349 37.0676 102.966 35.517 102.966 33.7726C102.966 31.8667 103.343 30.2084 104.097 28.7978C104.851 27.3872 105.89 26.2943 107.214 25.519C108.539 24.7329 110.063 24.3399 111.785 24.3399C113.616 24.3399 115.172 24.7706 116.453 25.632C117.735 26.4935 118.682 27.7049 119.296 29.2662C119.91 30.8276 120.125 32.6635 119.942 34.7741H115.597V33.1589C115.597 31.3821 115.312 30.1061 114.741 29.3308C114.181 28.5448 113.261 28.1518 111.979 28.1518C110.482 28.1518 109.379 28.6094 108.668 29.5247C107.968 30.4292 107.618 31.7698 107.618 33.5465C107.618 35.1725 107.968 36.4323 108.668 37.3261C109.379 38.209 110.418 38.6505 111.785 38.6505C112.647 38.6505 113.384 38.4621 113.998 38.0852C114.612 37.7083 115.08 37.1645 115.403 36.4539L119.797 37.7137C119.14 39.3074 118.101 40.5457 116.679 41.4287C115.269 42.3116 113.724 42.7531 112.044 42.7531ZM106.261 34.7741V31.5114H117.826V34.7741H106.261ZM135.477 42.2686V34.0311C135.477 33.6326 135.455 33.1266 135.412 32.5128C135.369 31.8882 135.235 31.2637 135.009 30.6392C134.782 30.0146 134.411 29.4924 133.894 29.0724C133.388 28.6525 132.667 28.4425 131.73 28.4425C131.353 28.4425 130.949 28.5017 130.518 28.6202C130.088 28.7386 129.684 28.9701 129.307 29.3147C128.93 29.6485 128.618 30.1438 128.37 30.8007C128.133 31.4575 128.015 32.3297 128.015 33.4173L125.495 32.222C125.495 30.8437 125.775 29.5516 126.335 28.3456C126.895 27.1396 127.735 26.1651 128.855 25.4221C129.985 24.6791 131.407 24.3076 133.119 24.3076C134.486 24.3076 135.601 24.5391 136.462 25.0021C137.324 25.4651 137.991 26.052 138.465 26.7627C138.95 27.4734 139.294 28.2164 139.499 28.9917C139.703 29.7562 139.827 30.4561 139.87 31.0914C139.913 31.7267 139.935 32.1897 139.935 32.4805V42.2686H135.477ZM123.557 42.2686V19.0098H127.466V30.9622H128.015V42.2686H123.557ZM144.449 22.4017V18.5252H148.843V22.4017H144.449ZM144.449 42.2686V24.8245H148.843V42.2686H144.449ZM158.401 42.2686L152.07 24.8245H156.463L160.598 36.9061L164.733 24.8245H169.126L162.795 42.2686H158.401ZM179.522 42.7531C177.735 42.7531 176.157 42.3709 174.79 41.6063C173.433 40.831 172.367 39.7704 171.592 38.4244C170.827 37.0676 170.445 35.517 170.445 33.7726C170.445 31.8667 170.822 30.2084 171.576 28.7978C172.329 27.3872 173.368 26.2943 174.693 25.519C176.017 24.7329 177.541 24.3399 179.264 24.3399C181.094 24.3399 182.65 24.7706 183.932 25.632C185.213 26.4935 186.161 27.7049 186.775 29.2662C187.388 30.8276 187.604 32.6635 187.421 34.7741H183.076V33.1589C183.076 31.3821 182.79 30.1061 182.22 29.3308C181.66 28.5448 180.739 28.1518 179.458 28.1518C177.961 28.1518 176.857 28.6094 176.147 29.5247C175.447 30.4292 175.097 31.7698 175.097 33.5465C175.097 35.1725 175.447 36.4323 176.147 37.3261C176.857 38.209 177.896 38.6505 179.264 38.6505C180.125 38.6505 180.863 38.4621 181.477 38.0852C182.091 37.7083 182.559 37.1645 182.882 36.4539L187.275 37.7137C186.618 39.3074 185.579 40.5457 184.158 41.4287C182.747 42.3116 181.202 42.7531 179.522 42.7531ZM173.74 34.7741V31.5114H185.305V34.7741H173.74Z" fill="#072047"/>
</svg>
