<svg width="231" height="54" viewBox="0 0 231 54" fill="none" xmlns="http://www.w3.org/2000/svg">
<path fill-rule="evenodd" clip-rule="evenodd" d="M26.8336 46.7204C37.5766 46.7204 46.2854 38.0115 46.2854 27.2686C46.2854 16.5256 37.5766 7.81677 26.8336 7.81677C16.0907 7.81677 7.38184 16.5256 7.38184 27.2686C7.38184 38.0115 16.0907 46.7204 26.8336 46.7204ZM33.5027 28.936C36.8791 28.936 39.6162 26.1989 39.6162 22.8226C39.6162 19.4462 36.8791 16.7091 33.5027 16.7091C30.1264 16.7091 27.3893 19.4462 27.3893 22.8226C27.3893 26.1989 30.1264 28.936 33.5027 28.936Z" fill="#2E343F"/>
<path d="M58.658 39.2686V16.4451H62.9691V35.2428H72.7959V39.2686H58.658ZM83.1937 39.744C81.4714 39.744 79.9604 39.3584 78.6607 38.587C77.3611 37.8157 76.3467 36.7537 75.6176 35.4012C74.8991 34.0382 74.5398 32.4744 74.5398 30.7098C74.5398 28.924 74.9096 27.3549 75.6493 26.0024C76.3889 24.6394 77.4086 23.5774 78.7083 22.8167C80.0079 22.0559 81.5031 21.6755 83.1937 21.6755C84.916 21.6755 86.427 22.0612 87.7267 22.8325C89.0369 23.6039 90.0566 24.6711 90.7857 26.0341C91.5148 27.3866 91.8793 28.9452 91.8793 30.7098C91.8793 32.4849 91.5095 34.054 90.7698 35.4171C90.0407 36.7696 89.0211 37.8315 87.7109 38.6029C86.4112 39.3637 84.9055 39.744 83.1937 39.744ZM83.1937 35.7182C84.5779 35.7182 85.6081 35.2533 86.2844 34.3235C86.9712 33.3831 87.3146 32.1785 87.3146 30.7098C87.3146 29.1882 86.9659 27.9731 86.2685 27.0643C85.5817 26.1556 84.5568 25.7013 83.1937 25.7013C82.2533 25.7013 81.482 25.9126 80.8797 26.3353C80.2774 26.7579 79.8283 27.3444 79.5324 28.0946C79.2472 28.8448 79.1045 29.7165 79.1045 30.7098C79.1045 32.2419 79.4479 33.4623 80.1347 34.371C80.8321 35.2692 81.8518 35.7182 83.1937 35.7182ZM103.068 39.744C101.345 39.744 99.8343 39.3584 98.5347 38.587C97.235 37.8157 96.2206 36.7537 95.4915 35.4012C94.773 34.0382 94.4138 32.4744 94.4138 30.7098C94.4138 28.924 94.7836 27.3549 95.5232 26.0024C96.2629 24.6394 97.2825 23.5774 98.5822 22.8167C99.8819 22.0559 101.377 21.6755 103.068 21.6755C104.79 21.6755 106.301 22.0612 107.601 22.8325C108.911 23.6039 109.931 24.6711 110.66 26.0341C111.389 27.3866 111.753 28.9452 111.753 30.7098C111.753 32.4849 111.383 34.054 110.644 35.4171C109.915 36.7696 108.895 37.8315 107.585 38.6029C106.285 39.3637 104.779 39.744 103.068 39.744ZM103.068 35.7182C104.452 35.7182 105.482 35.2533 106.158 34.3235C106.845 33.3831 107.189 32.1785 107.189 30.7098C107.189 29.1882 106.84 27.9731 106.142 27.0643C105.456 26.1556 104.431 25.7013 103.068 25.7013C102.127 25.7013 101.356 25.9126 100.754 26.3353C100.151 26.7579 99.7022 27.3444 99.4064 28.0946C99.1211 28.8448 98.9784 29.7165 98.9784 30.7098C98.9784 32.2419 99.3218 33.4623 100.009 34.371C100.706 35.2692 101.726 35.7182 103.068 35.7182ZM115.207 39.2686L115.239 16.4451H119.613V30.3928L125.414 22.151H130.74L124.558 30.7098L131.152 39.2686H125.541L119.613 31.0268V39.2686H115.207ZM139.108 39.744C136.952 39.744 135.209 39.258 133.878 38.2859C132.557 37.3032 131.754 35.919 131.468 34.1333L135.875 33.4676C136.054 34.2706 136.45 34.8993 137.063 35.3537C137.687 35.8081 138.474 36.0352 139.425 36.0352C140.207 36.0352 140.809 35.8873 141.232 35.5914C141.654 35.285 141.866 34.8624 141.866 34.3235C141.866 33.9853 141.781 33.7159 141.612 33.5151C141.443 33.3038 141.063 33.0978 140.471 32.897C139.89 32.6962 138.981 32.4321 137.745 32.1045C136.35 31.7453 135.235 31.3437 134.401 30.9C133.566 30.4562 132.964 29.9278 132.594 29.315C132.224 28.6916 132.039 27.9414 132.039 27.0643C132.039 25.9654 132.319 25.0145 132.879 24.2114C133.439 23.3978 134.226 22.7744 135.241 22.3412C136.266 21.8974 137.47 21.6755 138.854 21.6755C140.196 21.6755 141.385 21.8815 142.421 22.2936C143.456 22.7057 144.291 23.2921 144.925 24.0529C145.569 24.8137 145.966 25.7118 146.113 26.7474L141.707 27.5398C141.633 26.9059 141.359 26.4039 140.883 26.0341C140.408 25.6643 139.763 25.4477 138.949 25.3843C138.157 25.3315 137.518 25.4371 137.032 25.7013C136.556 25.9654 136.318 26.3458 136.318 26.8425C136.318 27.1383 136.419 27.3866 136.62 27.5874C136.831 27.7881 137.259 27.9942 137.903 28.2055C138.558 28.4169 139.552 28.6916 140.883 29.0297C142.183 29.3678 143.224 29.7641 144.005 30.2184C144.798 30.6622 145.374 31.2011 145.733 31.8351C146.092 32.4585 146.272 33.214 146.272 34.1016C146.272 35.8556 145.638 37.2345 144.37 38.2383C143.102 39.2421 141.348 39.744 139.108 39.744ZM170.359 39.2686V29.1565C170.359 28.0259 170.09 27.1489 169.551 26.5255C169.023 25.8915 168.288 25.5745 167.348 25.5745C166.746 25.5745 166.223 25.7171 165.779 26.0024C165.335 26.2772 164.986 26.6681 164.733 27.1753C164.49 27.6719 164.368 28.2478 164.368 28.9029L162.561 27.6983C162.561 26.5255 162.836 25.49 163.386 24.5918C163.946 23.6937 164.691 22.9963 165.62 22.4997C166.561 21.9925 167.602 21.7389 168.743 21.7389C170.698 21.7389 172.172 22.32 173.165 23.4823C174.169 24.6341 174.671 26.1451 174.671 28.0153V39.2686H170.359ZM149.723 39.2686V22.151H153.527V27.8251H154.066V39.2686H149.723ZM160.057 39.2686V29.1565C160.057 28.0259 159.788 27.1489 159.249 26.5255C158.721 25.8915 157.986 25.5745 157.046 25.5745C156.148 25.5745 155.424 25.8862 154.874 26.5096C154.335 27.1225 154.066 27.9202 154.066 28.9029L152.259 27.6349C152.259 26.5149 152.539 25.5111 153.099 24.6235C153.659 23.7359 154.409 23.0333 155.35 22.5155C156.301 21.9978 157.363 21.7389 158.536 21.7389C159.878 21.7389 160.976 22.0242 161.832 22.5948C162.699 23.1653 163.338 23.9261 163.75 24.8771C164.162 25.8281 164.368 26.8742 164.368 28.0153V39.2686H160.057ZM183.547 39.744C182.321 39.744 181.28 39.5116 180.424 39.0467C179.579 38.5712 178.935 37.9425 178.491 37.1606C178.058 36.3681 177.841 35.4963 177.841 34.5454C177.841 33.7529 177.962 33.0291 178.205 32.374C178.448 31.7189 178.839 31.143 179.378 30.6464C179.928 30.1392 180.662 29.7165 181.581 29.3784C182.215 29.1459 182.971 28.9399 183.848 28.7603C184.725 28.5806 185.718 28.4116 186.828 28.2531C187.937 28.084 189.158 27.8991 190.489 27.6983L188.936 28.5542C188.936 27.5398 188.693 26.7949 188.207 26.3194C187.721 25.8439 186.907 25.6062 185.766 25.6062C185.132 25.6062 184.471 25.7594 183.785 26.0658C183.098 26.3722 182.617 26.9164 182.342 27.6983L178.443 26.4621C178.876 25.0462 179.69 23.8944 180.884 23.0068C182.078 22.1193 183.705 21.6755 185.766 21.6755C187.277 21.6755 188.619 21.9079 189.792 22.3729C190.964 22.8378 191.852 23.6408 192.454 24.782C192.792 25.416 192.993 26.05 193.057 26.684C193.12 27.3179 193.152 28.0259 193.152 28.8078V39.2686H189.379V35.7499L189.918 36.479C189.084 37.6308 188.18 38.4655 187.208 38.9833C186.247 39.4904 185.026 39.744 183.547 39.744ZM184.466 36.3522C185.259 36.3522 185.924 36.2149 186.463 35.9401C187.013 35.6548 187.446 35.3326 187.763 34.9733C188.09 34.6141 188.312 34.3129 188.428 34.0699C188.65 33.605 188.777 33.0661 188.809 32.4532C188.851 31.8298 188.872 31.312 188.872 30.9L190.14 31.2169C188.862 31.4283 187.826 31.6079 187.034 31.7558C186.241 31.8932 185.602 32.02 185.116 32.1362C184.63 32.2525 184.202 32.3793 183.832 32.5166C183.409 32.6857 183.066 32.8706 182.802 33.0714C182.548 33.2615 182.358 33.4729 182.231 33.7053C182.115 33.9378 182.057 34.1967 182.057 34.482C182.057 34.8729 182.152 35.2111 182.342 35.4963C182.543 35.7711 182.823 35.9824 183.182 36.1303C183.542 36.2783 183.969 36.3522 184.466 36.3522ZM197.273 39.2686V22.151H201.077V26.3353L200.665 25.7964C200.887 25.2047 201.182 24.6658 201.552 24.1797C201.922 23.6937 202.376 23.2921 202.915 22.9751C203.327 22.7216 203.776 22.5261 204.262 22.3887C204.749 22.2408 205.25 22.151 205.768 22.1193C206.286 22.077 206.804 22.0876 207.321 22.151V26.1768C206.846 26.0288 206.291 25.9813 205.657 26.0341C205.034 26.0764 204.469 26.219 203.961 26.4621C203.454 26.6945 203.026 27.0062 202.678 27.3972C202.329 27.7776 202.065 28.2319 201.885 28.7603C201.705 29.278 201.616 29.8644 201.616 30.5196V39.2686H197.273ZM220.607 39.2686C219.423 39.4904 218.261 39.5855 217.12 39.5538C215.989 39.5327 214.975 39.3372 214.077 38.9674C213.189 38.587 212.513 37.9795 212.048 37.1447C211.625 36.3628 211.404 35.5703 211.382 34.7673C211.361 33.9536 211.351 33.0344 211.351 32.0094V17.3961H215.662V31.7558C215.662 32.4215 215.667 33.0238 215.678 33.5627C215.699 34.091 215.81 34.5137 216.011 34.8307C216.391 35.4329 216.998 35.7605 217.833 35.8133C218.668 35.8662 219.593 35.8239 220.607 35.6865V39.2686ZM208.434 25.4794V22.151H220.607V25.4794H208.434Z" fill="#072047"/>
</svg>
