<svg width="229" height="51" viewBox="0 0 229 51" fill="none" xmlns="http://www.w3.org/2000/svg">
<path fill-rule="evenodd" clip-rule="evenodd" d="M41.5571 14.3774C42.7601 14.3774 43.7353 13.4022 43.7353 12.1992C43.7353 10.9962 42.7601 10.021 41.5571 10.021C40.3541 10.021 39.3789 10.9962 39.3789 12.1992C39.3789 13.4022 40.3541 14.3774 41.5571 14.3774ZM41.5571 17.2817C44.3641 17.2817 46.6396 15.0062 46.6396 12.1992C46.6396 9.39221 44.3641 7.1167 41.5571 7.1167C38.7501 7.1167 36.4746 9.39221 36.4746 12.1992C36.4746 13.8439 37.2558 15.3061 38.4673 16.235L34.6645 28.9113C34.5428 28.9026 34.42 28.8982 34.2961 28.8982C33.4062 28.8982 32.5697 29.1269 31.8422 29.5288L25.9556 24.2309C26.184 23.6529 26.3094 23.0231 26.3094 22.364C26.3094 19.557 24.0339 17.2815 21.2269 17.2815C18.4199 17.2815 16.1444 19.557 16.1444 22.364C16.1444 23.6062 16.5901 24.7444 17.3303 25.6273L12.6353 33.2567C12.595 33.2558 12.5546 33.2553 12.5141 33.2553C9.70715 33.2553 7.43164 35.5308 7.43164 38.3378C7.43164 41.1448 9.70715 43.4203 12.5141 43.4203C15.3211 43.4203 17.5966 41.1448 17.5966 38.3378C17.5966 36.6312 16.7556 35.1211 15.4653 34.1994L19.7542 27.2299C20.2204 27.3707 20.7148 27.4465 21.2269 27.4465C22.3175 27.4465 23.3279 27.103 24.1557 26.5183L29.8037 31.6015C29.427 32.3113 29.2136 33.1211 29.2136 33.9807C29.2136 36.7877 31.4891 39.0632 34.2961 39.0632C37.1031 39.0632 39.3786 36.7877 39.3786 33.9807C39.3786 32.3363 38.5977 30.8742 37.3864 29.9453L41.1894 17.2686C41.3108 17.2773 41.4334 17.2817 41.5571 17.2817ZM34.2961 36.1589C35.4991 36.1589 36.4743 35.1837 36.4743 33.9807C36.4743 32.7777 35.4991 31.8025 34.2961 31.8025C33.0931 31.8025 32.1179 32.7777 32.1179 33.9807C32.1179 35.1837 33.0931 36.1589 34.2961 36.1589ZM23.4051 22.364C23.4051 23.567 22.4299 24.5422 21.2269 24.5422C20.0239 24.5422 19.0487 23.567 19.0487 22.364C19.0487 21.161 20.0239 20.1858 21.2269 20.1858C22.4299 20.1858 23.4051 21.161 23.4051 22.364ZM12.5141 40.516C13.7171 40.516 14.6924 39.5408 14.6924 38.3378C14.6924 37.1348 13.7171 36.1596 12.5141 36.1596C11.3111 36.1596 10.3359 37.1348 10.3359 38.3378C10.3359 39.5408 11.3111 40.516 12.5141 40.516Z" fill="#072047"/>
<path d="M68.6031 37.7478C66.3029 37.7478 64.3168 37.2473 62.6449 36.2462C60.9837 35.2452 59.7005 33.8449 58.7953 32.0452C57.9008 30.2455 57.4535 28.153 57.4535 25.7676C57.4535 23.3822 57.9008 21.2897 58.7953 19.49C59.7005 17.6903 60.9837 16.2899 62.6449 15.2889C64.3168 14.2879 66.3029 13.7874 68.6031 13.7874C71.2441 13.7874 73.4591 14.4423 75.2481 15.7521C77.0478 17.062 78.315 18.835 79.0498 21.0713L74.673 22.2853C74.2471 20.8903 73.5283 19.8094 72.5166 19.0427C71.505 18.2653 70.2004 17.8766 68.6031 17.8766C67.1442 17.8766 65.9249 18.2014 64.9451 18.851C63.9761 19.5006 63.2466 20.4164 62.7568 21.5985C62.2669 22.7805 62.022 24.1702 62.022 25.7676C62.022 27.3649 62.2669 28.7546 62.7568 29.9367C63.2466 31.1187 63.9761 32.0345 64.9451 32.6841C65.9249 33.3337 67.1442 33.6585 68.6031 33.6585C70.2004 33.6585 71.505 33.2698 72.5166 32.4925C73.5283 31.7151 74.2471 30.6342 74.673 29.2498L79.0498 30.4638C78.315 32.7001 77.0478 34.4732 75.2481 35.783C73.4591 37.0928 71.2441 37.7478 68.6031 37.7478ZM94.3235 37.2686V29.122C94.3235 28.728 94.3022 28.2275 94.2597 27.6205C94.2171 27.0029 94.0839 26.3852 93.8603 25.7676C93.6367 25.1499 93.2693 24.6335 92.7581 24.2181C92.2576 23.8028 91.5441 23.5952 90.6177 23.5952C90.245 23.5952 89.8456 23.6537 89.4197 23.7709C88.9937 23.888 88.5944 24.117 88.2216 24.4577C87.8489 24.7879 87.5401 25.2777 87.2952 25.9273C87.0609 26.5769 86.9438 27.4395 86.9438 28.515L84.4519 27.333C84.4519 25.9699 84.7287 24.692 85.2825 23.4993C85.8363 22.3066 86.6669 21.3429 87.7744 20.6081C88.8925 19.8733 90.2982 19.5059 91.9914 19.5059C93.3438 19.5059 94.446 19.7349 95.2979 20.1928C96.1499 20.6507 96.8101 21.2311 97.2787 21.9339C97.7579 22.6368 98.0986 23.3715 98.301 24.1383C98.5033 24.8944 98.6258 25.5865 98.6684 26.2148C98.711 26.8431 98.7323 27.301 98.7323 27.5886V37.2686H94.3235ZM82.535 37.2686V14.2666H86.4007V26.087H86.9438V37.2686H82.535ZM110.896 37.7478C109.128 37.7478 107.568 37.3697 106.216 36.6136C104.874 35.8469 103.82 34.798 103.053 33.4668C102.297 32.1251 101.919 30.5916 101.919 28.8665C101.919 26.9816 102.291 25.3416 103.037 23.9466C103.782 22.5516 104.81 21.4707 106.12 20.704C107.43 19.9266 108.936 19.5379 110.64 19.5379C112.451 19.5379 113.989 19.9638 115.257 20.8158C116.524 21.6677 117.461 22.8657 118.068 24.4098C118.675 25.9539 118.888 27.7696 118.707 29.8568H114.41V28.2595C114.41 26.5024 114.128 25.2405 113.563 24.4737C113.01 23.6963 112.099 23.3076 110.832 23.3076C109.352 23.3076 108.26 23.7602 107.557 24.6654C106.865 25.5599 106.519 26.8857 106.519 28.6428C106.519 30.2508 106.865 31.4968 107.557 32.3806C108.26 33.2539 109.288 33.6905 110.64 33.6905C111.492 33.6905 112.222 33.5041 112.829 33.1314C113.436 32.7587 113.899 32.2209 114.218 31.5181L118.563 32.764C117.914 34.3401 116.886 35.5647 115.48 36.4379C114.085 37.3112 112.557 37.7478 110.896 37.7478ZM105.177 29.8568V26.6302H116.614V29.8568H105.177ZM142.611 37.2686V27.0774C142.611 25.938 142.34 25.0541 141.797 24.4258C141.264 23.7869 140.524 23.4674 139.576 23.4674C138.969 23.4674 138.442 23.6111 137.995 23.8987C137.548 24.1755 137.196 24.5696 136.941 25.0807C136.696 25.5812 136.573 26.1616 136.573 26.8218L134.752 25.6078C134.752 24.4258 135.029 23.3822 135.583 22.477C136.147 21.5719 136.898 20.869 137.835 20.3685C138.783 19.8574 139.832 19.6018 140.982 19.6018C142.952 19.6018 144.438 20.1875 145.439 21.3589C146.45 22.5196 146.956 24.0424 146.956 25.9273V37.2686H142.611ZM121.814 37.2686V20.0171H125.647V25.7356H126.191V37.2686H121.814ZM132.229 37.2686V27.0774C132.229 25.938 131.957 25.0541 131.414 24.4258C130.881 23.7869 130.141 23.4674 129.194 23.4674C128.288 23.4674 127.559 23.7815 127.005 24.4098C126.462 25.0275 126.191 25.8315 126.191 26.8218L124.37 25.5439C124.37 24.4151 124.652 23.4035 125.216 22.509C125.781 21.6144 126.537 20.9063 127.484 20.3845C128.443 19.8627 129.513 19.6018 130.695 19.6018C132.048 19.6018 133.155 19.8893 134.018 20.4644C134.891 21.0394 135.535 21.8061 135.95 22.7645C136.366 23.723 136.573 24.7772 136.573 25.9273V37.2686H132.229ZM151.429 17.6211V13.7874H155.774V17.6211H151.429ZM151.429 37.2686V20.0171H155.774V37.2686H151.429ZM167.304 37.7478C165.131 37.7478 163.374 37.2579 162.033 36.2782C160.701 35.2878 159.892 33.8928 159.605 32.0931L164.045 31.4222C164.226 32.2316 164.626 32.8652 165.243 33.3231C165.872 33.781 166.665 34.0099 167.623 34.0099C168.411 34.0099 169.018 33.8609 169.444 33.5627C169.87 33.2539 170.083 32.8279 170.083 32.2848C170.083 31.944 169.998 31.6725 169.828 31.4701C169.657 31.2572 169.274 31.0495 168.678 30.8472C168.092 30.6448 167.176 30.3786 165.93 30.0485C164.524 29.6864 163.401 29.2818 162.56 28.8345C161.718 28.3872 161.111 27.8548 160.739 27.2371C160.366 26.6089 160.18 25.8528 160.18 24.9689C160.18 23.8614 160.462 22.903 161.026 22.0937C161.591 21.2737 162.384 20.6454 163.406 20.2088C164.439 19.7615 165.653 19.5379 167.048 19.5379C168.401 19.5379 169.599 19.7455 170.642 20.1609C171.686 20.5762 172.527 21.1672 173.166 21.9339C173.816 22.7007 174.215 23.6058 174.364 24.6494L169.923 25.4481C169.849 24.8092 169.572 24.3033 169.093 23.9306C168.614 23.5579 167.964 23.3396 167.144 23.2757C166.345 23.2225 165.701 23.3289 165.211 23.5952C164.732 23.8614 164.492 24.2448 164.492 24.7453C164.492 25.0434 164.594 25.2937 164.796 25.496C165.009 25.6984 165.44 25.906 166.09 26.119C166.75 26.332 167.751 26.6089 169.093 26.9496C170.403 27.2904 171.452 27.6897 172.24 28.1476C173.038 28.5949 173.619 29.138 173.981 29.7769C174.343 30.4052 174.524 31.1666 174.524 32.0612C174.524 33.8289 173.885 35.2186 172.607 36.2303C171.329 37.2419 169.561 37.7478 167.304 37.7478ZM188.385 37.2686C187.192 37.4922 186.021 37.588 184.871 37.5561C183.731 37.5348 182.709 37.3378 181.804 36.9651C180.909 36.5817 180.228 35.9694 179.759 35.1281C179.333 34.3401 179.11 33.5414 179.088 32.7321C179.067 31.9121 179.056 30.9856 179.056 29.9527V15.225H183.401V29.6971C183.401 30.368 183.407 30.975 183.417 31.5181C183.438 32.0505 183.55 32.4765 183.753 32.796C184.136 33.4029 184.748 33.7331 185.59 33.7863C186.431 33.8396 187.363 33.797 188.385 33.6585V37.2686ZM176.117 23.3715V20.0171H188.385V23.3715H176.117ZM192.229 37.2686V20.0171H196.063V24.2341L195.648 23.691C195.871 23.0947 196.169 22.5516 196.542 22.0617C196.915 21.5719 197.373 21.1672 197.916 20.8477C198.331 20.5921 198.784 20.3951 199.274 20.2567C199.764 20.1076 200.269 20.0171 200.791 19.9851C201.313 19.9425 201.835 19.9532 202.357 20.0171V24.0744C201.877 23.9253 201.318 23.8774 200.679 23.9306C200.051 23.9732 199.481 24.117 198.97 24.3619C198.459 24.5962 198.028 24.9103 197.676 25.3043C197.325 25.6877 197.059 26.1456 196.878 26.6781C196.697 27.1999 196.606 27.7909 196.606 28.4511V37.2686H192.229ZM206.975 44.9359L210.298 35.799L210.362 38.4825L202.854 20.0171H207.359L212.406 33.0835H211.384L216.4 20.0171H220.745L211.001 44.9359H206.975Z" fill="#072047"/>
</svg>
